<?xml version="1.0" encoding="utf-8"?>
<!-- Generator: Adobe Illustrator 16.0.0, SVG Export Plug-In . SVG Version: 6.00 Build 0)  -->
<!DOCTYPE svg PUBLIC "-//W3C//DTD SVG 1.1//EN" "http://www.w3.org/Graphics/SVG/1.1/DTD/svg11.dtd">
<svg version="1.1" id="Layer_1" xmlns="http://www.w3.org/2000/svg" xmlns:xlink="http://www.w3.org/1999/xlink" x="0px" y="0px"
	 width="710px" height="299px" viewBox="0 0 710 299" enable-background="new 0 0 710 299" xml:space="preserve">
<g opacity="0.6">
	<circle fill="none" stroke="#FFFFFF" stroke-miterlimit="10" cx="38.71" cy="39.357" r="19.677"/>
	<circle fill="none" stroke="#FFFFFF" stroke-miterlimit="10" cx="547.71" cy="39.357" r="19.677"/>
	<circle fill="none" stroke="#FFFFFF" stroke-miterlimit="10" cx="484.085" cy="39.357" r="19.677"/>
	<circle fill="none" stroke="#FFFFFF" stroke-miterlimit="10" cx="420.46" cy="39.357" r="19.677"/>
	<circle fill="none" stroke="#FFFFFF" stroke-miterlimit="10" cx="356.835" cy="39.357" r="19.677"/>
	<circle fill="none" stroke="#FFFFFF" stroke-miterlimit="10" cx="293.21" cy="39.357" r="19.677"/>
	<circle fill="none" stroke="#FFFFFF" stroke-miterlimit="10" cx="229.585" cy="39.357" r="19.677"/>
	<circle fill="none" stroke="#FFFFFF" stroke-miterlimit="10" cx="165.96" cy="39.357" r="19.677"/>
	<circle fill="none" stroke="#FFFFFF" stroke-miterlimit="10" cx="102.335" cy="39.357" r="19.677"/>
	<line fill="none" stroke="#FFFFFF" stroke-miterlimit="10" x1="58" y1="39.5" x2="83" y2="39.5"/>
	<line fill="none" stroke="#FFFFFF" stroke-miterlimit="10" x1="122" y1="39.5" x2="146" y2="39.5"/>
	<line fill="none" stroke="#FFFFFF" stroke-miterlimit="10" x1="186" y1="39.5" x2="210" y2="39.5"/>
	<line fill="none" stroke="#FFFFFF" stroke-miterlimit="10" x1="249" y1="39.5" x2="274" y2="39.5"/>
	<line fill="none" stroke="#FFFFFF" stroke-miterlimit="10" x1="313" y1="39.5" x2="337" y2="39.5"/>
	<line fill="none" stroke="#FFFFFF" stroke-miterlimit="10" x1="377" y1="39.5" x2="401" y2="39.5"/>
	<line fill="none" stroke="#FFFFFF" stroke-miterlimit="10" x1="440" y1="39.5" x2="464" y2="39.5"/>
	<line fill="none" stroke="#FFFFFF" stroke-miterlimit="10" x1="504" y1="39.5" x2="528" y2="39.5"/>
</g>
<circle opacity="0.6" fill="none" stroke="#FFFFFF" stroke-miterlimit="10" enable-background="new    " cx="70.71" cy="95.357" r="19.677"/>
<circle opacity="0.6" fill="none" stroke="#FFFFFF" stroke-miterlimit="10" enable-background="new    " cx="197.96" cy="95.357" r="19.677"/>
<circle opacity="0.6" fill="none" stroke="#FFFFFF" stroke-miterlimit="10" enable-background="new    " cx="134.335" cy="95.357" r="19.677"/>
<line opacity="0.6" fill="none" stroke="#FFFFFF" stroke-miterlimit="10" enable-background="new    " x1="90" y1="95.5" x2="115" y2="95.5"/>
<line opacity="0.6" fill="none" stroke="#FFFFFF" stroke-miterlimit="10" enable-background="new    " x1="154" y1="95.5" x2="178" y2="95.5"/>
<circle opacity="0.6" fill="none" stroke="#FFFFFF" stroke-miterlimit="10" enable-background="new    " cx="102.71" cy="151.357" r="19.677"/>
<circle opacity="0.6" fill="none" stroke="#FFFFFF" stroke-miterlimit="10" enable-background="new    " cx="420.835" cy="151.357" r="19.677"/>
<circle opacity="0.6" fill="none" stroke="#FFFFFF" stroke-miterlimit="10" enable-background="new    " cx="357.21" cy="151.357" r="19.677"/>
<circle opacity="0.6" fill="none" stroke="#FFFFFF" stroke-miterlimit="10" enable-background="new    " cx="293.585" cy="151.357" r="19.677"/>
<circle opacity="0.6" fill="none" stroke="#FFFFFF" stroke-miterlimit="10" enable-background="new    " cx="229.96" cy="151.357" r="19.677"/>
<circle opacity="0.6" fill="none" stroke="#FFFFFF" stroke-miterlimit="10" enable-background="new    " cx="166.335" cy="151.357" r="19.677"/>
<line opacity="0.6" fill="none" stroke="#FFFFFF" stroke-miterlimit="10" enable-background="new    " x1="122" y1="151.5" x2="147" y2="151.5"/>
<line opacity="0.6" fill="none" stroke="#FFFFFF" stroke-miterlimit="10" enable-background="new    " x1="186" y1="151.5" x2="210" y2="151.5"/>
<line opacity="0.6" fill="none" stroke="#FFFFFF" stroke-miterlimit="10" enable-background="new    " x1="250" y1="151.5" x2="274" y2="151.5"/>
<line opacity="0.6" fill="none" stroke="#FFFFFF" stroke-miterlimit="10" enable-background="new    " x1="313" y1="151.5" x2="338" y2="151.5"/>
<line opacity="0.6" fill="none" stroke="#FFFFFF" stroke-miterlimit="10" enable-background="new    " x1="377" y1="151.5" x2="401" y2="151.5"/>
<circle opacity="0.6" fill="none" stroke="#FFFFFF" stroke-miterlimit="10" enable-background="new    " cx="134.71" cy="207.357" r="19.677"/>
<circle opacity="0.6" fill="none" stroke="#FFFFFF" stroke-miterlimit="10" enable-background="new    " cx="198.335" cy="207.357" r="19.677"/>
<line opacity="0.6" fill="none" stroke="#FFFFFF" stroke-miterlimit="10" enable-background="new    " x1="154" y1="207.5" x2="179" y2="207.5"/>
<circle opacity="0.6" fill="none" stroke="#FFFFFF" stroke-miterlimit="10" enable-background="new    " cx="166.71" cy="263.357" r="19.677"/>
<circle opacity="0.6" fill="none" stroke="#FFFFFF" stroke-miterlimit="10" enable-background="new    " cx="230.335" cy="263.357" r="19.677"/>
<line opacity="0.6" fill="none" stroke="#FFFFFF" stroke-miterlimit="10" enable-background="new    " x1="186" y1="263.5" x2="211" y2="263.5"/>
<line opacity="0.6" fill="none" stroke="#FFFFFF" stroke-miterlimit="10" enable-background="new    " x1="48.16" y1="56.619" x2="61.681" y2="77.875"/>
<line opacity="0.6" fill="none" stroke="#FFFFFF" stroke-miterlimit="10" enable-background="new    " x1="80.057" y1="112.677" x2="93.583" y2="133.925"/>
<line opacity="0.6" fill="none" stroke="#FFFFFF" stroke-miterlimit="10" enable-background="new    " x1="111.685" y1="168.867" x2="124.984" y2="190.254"/>
<line opacity="0.6" fill="none" stroke="#FFFFFF" stroke-miterlimit="10" enable-background="new    " x1="142.814" y1="225.288" x2="156.637" y2="246.454"/>
<line opacity="0.6" fill="none" stroke="#FFFFFF" stroke-miterlimit="10" enable-background="new    " x1="206.989" y1="77.875" x2="220.135" y2="56.619"/>
<line opacity="0.6" fill="none" stroke="#FFFFFF" stroke-miterlimit="10" enable-background="new    " x1="207.307" y1="112.677" x2="220.833" y2="133.925"/>
<line opacity="0.6" fill="none" stroke="#FFFFFF" stroke-miterlimit="10" enable-background="new    " x1="366.337" y1="133.925" x2="411.01" y2="56.619"/>
<line opacity="0.6" fill="none" stroke="#FFFFFF" stroke-miterlimit="10" enable-background="new    " x1="240.408" y1="246.454" x2="284.61" y2="168.867"/>
</svg>
